<?xml version="1.0" encoding="UTF-8" standalone="no"?>
<!-- Created with Inkscape (http://www.inkscape.org/) -->

<svg
   xmlns:dc="http://purl.org/dc/elements/1.1/"
   xmlns:cc="http://creativecommons.org/ns#"
   xmlns:rdf="http://www.w3.org/1999/02/22-rdf-syntax-ns#"
   xmlns:svg="http://www.w3.org/2000/svg"
   xmlns="http://www.w3.org/2000/svg"
   xmlns:sodipodi="http://sodipodi.sourceforge.net/DTD/sodipodi-0.dtd"
   xmlns:inkscape="http://www.inkscape.org/namespaces/inkscape"
   width="16mm"
   height="16mm"
   viewBox="0 0 16 16"
   version="1.1"
   id="svg8"
   inkscape:version="0.92.4 5da689c313, 2019-01-14"
   sodipodi:docname="bsd-inkscape.svg">
  <defs
     id="defs2" />
  <sodipodi:namedview
     id="base"
     pagecolor="#ffffff"
     bordercolor="#666666"
     borderopacity="1.0"
     inkscape:pageopacity="0.0"
     inkscape:pageshadow="2"
     inkscape:zoom="1"
     inkscape:cx="134.31404"
     inkscape:cy="-360.61519"
     inkscape:document-units="mm"
     inkscape:current-layer="layer1"
     showgrid="false"
     fit-margin-top="0"
     fit-margin-left="0"
     fit-margin-right="0"
     fit-margin-bottom="0"
     inkscape:window-width="1918"
     inkscape:window-height="1178"
     inkscape:window-x="0"
     inkscape:window-y="20"
     inkscape:window-maximized="0" />
  <metadata
     id="metadata5">
    <rdf:RDF>
      <cc:Work
         rdf:about="">
        <dc:format>image/svg+xml</dc:format>
        <dc:type
           rdf:resource="http://purl.org/dc/dcmitype/StillImage" />
        <dc:title></dc:title>
      </cc:Work>
    </rdf:RDF>
  </metadata>
  <g
     inkscape:label="Layer 1"
     inkscape:groupmode="layer"
     id="layer1"
     transform="translate(-37.211088,-32.787761)">
    <path
       style="fill:#ffffff;fill-opacity:1;stroke:none;stroke-width:1.58749998;stroke-linecap:round;stroke-linejoin:miter;stroke-miterlimit:0.69999999;stroke-dasharray:none;stroke-dashoffset:38.53903961;stroke-opacity:1"
       d="m 53.02668,41.057141 a 7.630394,7.630394 0 0 1 -7.630394,7.630394 7.630394,7.630394 0 0 1 -7.630394,-7.630394 7.630394,7.630394 0 0 1 7.630394,-7.630394 7.630394,7.630394 0 0 1 7.630394,7.630394 z"
       id="path826"
       inkscape:connector-curvature="0" />
    <path
       style="fill:#100c00;fill-opacity:1;fill-rule:evenodd;stroke:none;stroke-width:0.26458332px;stroke-linecap:butt;stroke-linejoin:miter;stroke-opacity:1"
       d="m 38.200929,32.952384 c -0.221051,0.01288 -0.416965,0.07682 -0.576191,0.20774 -0.87167,0.914226 0.207392,2.445619 0.80046,3.559538 0.677068,-1.118384 1.630134,-2.044046 2.767791,-2.688206 -0.966952,-0.520954 -2.050527,-1.13391 -2.99206,-1.079072 z"
       id="path849"
       inkscape:connector-curvature="0"
       sodipodi:nodetypes="ccccc" />
    <path
       style="fill:#100c00;fill-opacity:1;fill-rule:evenodd;stroke:none;stroke-width:0.26458332px;stroke-linecap:butt;stroke-linejoin:miter;stroke-opacity:1"
       d="m 53.118723,33.803942 c -0.02152,-0.220378 -0.09308,-0.41364 -0.230129,-0.56762 -0.947636,-0.835227 -4.494684,1.782486 -4.532168,1.892504 -0.192329,0.582671 1.772185,2.935358 2.794458,2.660474 0.165333,-0.109619 2.059479,-3.046692 1.967839,-3.985358 z"
       id="path849-6"
       inkscape:connector-curvature="0"
       sodipodi:nodetypes="ccccc" />
    <path
       inkscape:connector-curvature="0"
       style="fill:#000000;fill-opacity:1;stroke:none;stroke-width:1.58749998;stroke-linecap:round;stroke-linejoin:miter;stroke-miterlimit:0.69999999;stroke-dasharray:none;stroke-dashoffset:38.53903961;stroke-opacity:1"
       d="m 45.396544,33.426858 c -4.214064,-8.2e-5 -7.630339,3.415961 -7.630543,7.630025 -8.1e-5,4.214266 3.416277,7.630623 7.630543,7.630541 4.214064,-2.03e-4 7.630107,-3.416477 7.630026,-7.630541 -0.0011,-1.485162 -0.296706,-2.583384 -1.111264,-3.825239 -0.309089,0.499766 -0.386615,0.613844 -0.386615,0.613844 -0.05117,0.111177 0.04684,0.593807 -0.308889,0.550216 -1.353333,-0.214491 -3.503026,-2.063249 -3.520518,-3.423711 0.02409,-0.211832 0.551163,-0.144734 0.597338,-0.164199 0,0 0.173012,-0.125596 0.676816,-0.4639 -1.165616,-0.683012 -2.22591,-0.914379 -3.576894,-0.917036 z"
       id="path826-0"
       sodipodi:nodetypes="ccccccccccc" />
  </g>
</svg>
