<?xml version="1.0" encoding="UTF-8"?>
<svg width="16mm" height="16mm" version="1.1" viewBox="0 0 16 16" xmlns="http://www.w3.org/2000/svg" xmlns:cc="http://creativecommons.org/ns#" xmlns:dc="http://purl.org/dc/elements/1.1/" xmlns:rdf="http://www.w3.org/1999/02/22-rdf-syntax-ns#">
<g transform="translate(-37.211 -32.788)">
<path d="m53.027 41.057a7.6304 7.6304 0 0 1-7.6304 7.6304 7.6304 7.6304 0 0 1-7.6304-7.6304 7.6304 7.6304 0 0 1 7.6304-7.6304 7.6304 7.6304 0 0 1 7.6304 7.6304z" fill="#fff"/>
<path d="m38.201 32.952c-0.22105 0.01288-0.41696 0.07682-0.57619 0.20774-0.87167 0.91423 0.20739 2.4456 0.80046 3.5595 0.67707-1.1184 1.6301-2.044 2.7678-2.6882-0.96695-0.52095-2.0505-1.1339-2.9921-1.0791z" fill="#100c00" fill-rule="evenodd"/>
<path d="m53.119 33.804c-0.02152-0.22038-0.09308-0.41364-0.23013-0.56762-0.94764-0.83523-4.4947 1.7825-4.5322 1.8925-0.19233 0.58267 1.7722 2.9354 2.7945 2.6605 0.16533-0.10962 2.0595-3.0467 1.9678-3.9854z" fill="#100c00" fill-rule="evenodd"/>
<path d="m45.397 33.427c-4.2141-8.2e-5 -7.6303 3.416-7.6305 7.63-8.1e-5 4.2143 3.4163 7.6306 7.6305 7.6305 4.2141-2.03e-4 7.6301-3.4165 7.63-7.6305-0.0011-1.4852-0.29671-2.5834-1.1113-3.8252-0.30909 0.49977-0.38662 0.61384-0.38662 0.61384-0.05117 0.11118 0.04684 0.59381-0.30889 0.55022-1.3533-0.21449-3.503-2.0632-3.5205-3.4237 0.02409-0.21183 0.55116-0.14473 0.59734-0.1642 0 0 0.17301-0.1256 0.67682-0.4639-1.1656-0.68301-2.2259-0.91438-3.5769-0.91704z"/>
</g>
</svg>
